<svg width="8" height="12" viewBox="0 0 8 12" fill="none" xmlns="http://www.w3.org/2000/svg">
<path d="M1.16775 1.02501C0.981494 1.21238 0.876953 1.46583 0.876953 1.73001C0.876953 1.9942 0.981494 2.24765 1.16775 2.43501L4.70775 6.02501L1.16775 9.56501C0.981495 9.75238 0.876953 10.0058 0.876953 10.27C0.876953 10.5342 0.981495 10.7877 1.16775 10.975C1.26071 11.0687 1.37131 11.1431 1.49317 11.1939C1.61503 11.2447 1.74573 11.2708 1.87775 11.2708C2.00976 11.2708 2.14046 11.2447 2.26232 11.1939C2.38418 11.1431 2.49478 11.0687 2.58775 10.975L6.82775 6.73501C6.92147 6.64205 6.99587 6.53145 7.04664 6.40959C7.09741 6.28773 7.12354 6.15703 7.12354 6.02501C7.12354 5.893 7.09741 5.7623 7.04664 5.64044C6.99587 5.51858 6.92147 5.40798 6.82775 5.31501L2.58775 1.02501C2.49478 0.931286 2.38418 0.856892 2.26232 0.806124C2.14046 0.755355 2.00976 0.729216 1.87775 0.729216C1.74573 0.729216 1.61503 0.755355 1.49317 0.806124C1.37131 0.856892 1.26071 0.931286 1.16775 1.02501Z" fill="#D92B26"/>
</svg>
