<svg width="12" height="8" viewBox="0 0 12 8" fill="none" xmlns="http://www.w3.org/2000/svg">
<path d="M10.9748 1.1675C10.7874 0.981251 10.534 0.876709 10.2698 0.876709C10.0056 0.876709 9.75216 0.981251 9.5648 1.1675L5.9748 4.7075L2.4348 1.1675C2.24744 0.981251 1.99399 0.876709 1.7298 0.876709C1.46562 0.876709 1.21216 0.981251 1.0248 1.1675C0.931074 1.26046 0.856679 1.37107 0.805911 1.49292C0.755142 1.61478 0.729004 1.74549 0.729004 1.8775C0.729004 2.00951 0.755142 2.14022 0.805911 2.26208C0.856679 2.38394 0.931074 2.49454 1.0248 2.5875L5.2648 6.8275C5.35776 6.92123 5.46837 6.99562 5.59023 7.04639C5.71208 7.09716 5.84279 7.1233 5.9748 7.1233C6.10681 7.1233 6.23752 7.09716 6.35938 7.04639C6.48124 6.99562 6.59184 6.92123 6.6848 6.8275L10.9748 2.5875C11.0685 2.49454 11.1429 2.38394 11.1937 2.26208C11.2445 2.14022 11.2706 2.00951 11.2706 1.8775C11.2706 1.74549 11.2445 1.61478 11.1937 1.49292C11.1429 1.37107 11.0685 1.26046 10.9748 1.1675Z" fill="#D92B26"/>
</svg>
