<svg width="8" height="12" viewBox="0 0 8 12" fill="none" xmlns="http://www.w3.org/2000/svg">
<path d="M6.83275 10.975C7.019 10.7876 7.12354 10.5342 7.12354 10.27C7.12354 10.0058 7.019 9.75235 6.83275 9.56499L3.29275 5.97499L6.83275 2.43499C7.019 2.24762 7.12354 1.99417 7.12354 1.72999C7.12354 1.4658 7.019 1.21235 6.83275 1.02499C6.73979 0.931257 6.62919 0.856862 6.50733 0.806094C6.38547 0.755325 6.25476 0.729187 6.12275 0.729187C5.99074 0.729187 5.86003 0.755325 5.73817 0.806094C5.61632 0.856862 5.50571 0.931257 5.41275 1.02499L1.17275 5.26499C1.07902 5.35795 1.00463 5.46855 0.95386 5.59041C0.903092 5.71227 0.876953 5.84297 0.876953 5.97499C0.876953 6.107 0.903092 6.2377 0.95386 6.35956C1.00463 6.48142 1.07902 6.59202 1.17275 6.68499L5.41275 10.975C5.50571 11.0687 5.61632 11.1431 5.73817 11.1939C5.86003 11.2446 5.99074 11.2708 6.12275 11.2708C6.25476 11.2708 6.38547 11.2446 6.50733 11.1939C6.62919 11.1431 6.73979 11.0687 6.83275 10.975Z" fill="#D92B26"/>
</svg>
