<svg width="16" height="20" viewBox="0 0 16 20" fill="none" xmlns="http://www.w3.org/2000/svg">
<path d="M14.3 6.59L15.21 5.69C15.3983 5.5017 15.5041 5.2463 15.5041 4.98C15.5041 4.7137 15.3983 4.4583 15.21 4.27C15.0217 4.0817 14.7663 3.97591 14.5 3.97591C14.2337 3.97591 13.9783 4.0817 13.79 4.27L12.89 5.18C11.4886 4.09585 9.76687 3.50764 7.99503 3.50764C6.22318 3.50764 4.50147 4.09585 3.10003 5.18L2.19003 4.26C2.0004 4.0717 1.74373 3.96644 1.47649 3.96737C1.20925 3.96831 0.95333 4.07537 0.765026 4.265C0.576722 4.45463 0.471462 4.7113 0.472399 4.97854C0.473337 5.24577 0.580396 5.5017 0.770026 5.69L1.69003 6.6C0.593042 7.99755 -0.00218316 9.72334 2.6229e-05 11.5C-0.00323946 12.7754 0.29849 14.0331 0.88005 15.1683C1.46161 16.3034 2.30614 17.283 3.34322 18.0254C4.38029 18.7679 5.57985 19.2516 6.84184 19.4362C8.10383 19.6208 9.39168 19.5011 10.598 19.0869C11.8043 18.6727 12.8941 17.9761 13.7764 17.0552C14.6588 16.1342 15.3082 15.0157 15.6705 13.7928C16.0328 12.5699 16.0974 11.2781 15.859 10.0251C15.6206 8.77219 15.0861 7.5944 14.3 6.59V6.59ZM8.00003 17.5C6.81334 17.5 5.6533 17.1481 4.6666 16.4888C3.67991 15.8295 2.91087 14.8925 2.45675 13.7961C2.00262 12.6997 1.8838 11.4933 2.11531 10.3295C2.34683 9.16557 2.91827 8.09647 3.75739 7.25736C4.5965 6.41824 5.6656 5.8468 6.82948 5.61529C7.99337 5.38378 9.19977 5.5026 10.2961 5.95672C11.3925 6.41085 12.3296 7.17988 12.9888 8.16658C13.6481 9.15327 14 10.3133 14 11.5C14 13.0913 13.3679 14.6174 12.2427 15.7426C11.1174 16.8679 9.59133 17.5 8.00003 17.5ZM6.00003 2.5H10C10.2652 2.5 10.5196 2.39464 10.7071 2.20711C10.8947 2.01957 11 1.76522 11 1.5C11 1.23478 10.8947 0.98043 10.7071 0.792893C10.5196 0.605357 10.2652 0.5 10 0.5H6.00003C5.73481 0.5 5.48046 0.605357 5.29292 0.792893C5.10538 0.98043 5.00003 1.23478 5.00003 1.5C5.00003 1.76522 5.10538 2.01957 5.29292 2.20711C5.48046 2.39464 5.73481 2.5 6.00003 2.5V2.5ZM9.00003 8.5C9.00003 8.23478 8.89467 7.98043 8.70713 7.79289C8.5196 7.60536 8.26524 7.5 8.00003 7.5C7.73481 7.5 7.48046 7.60536 7.29292 7.79289C7.10538 7.98043 7.00003 8.23478 7.00003 8.5V10.39C6.7736 10.5925 6.614 10.859 6.54235 11.1542C6.47069 11.4495 6.49037 11.7595 6.59877 12.0433C6.70717 12.3271 6.89918 12.5712 7.14939 12.7435C7.39961 12.9158 7.69624 13.008 8.00003 13.008C8.30381 13.008 8.60044 12.9158 8.85066 12.7435C9.10088 12.5712 9.29289 12.3271 9.40129 12.0433C9.50968 11.7595 9.52936 11.4495 9.45771 11.1542C9.38606 10.859 9.22646 10.5925 9.00003 10.39V8.5Z" fill="#D92B26"/>
</svg>
