<svg width="40" height="40" viewBox="0 0 40 40" fill="none" xmlns="http://www.w3.org/2000/svg">
<g clip-path="url(#clip0_201_1206)">
<path d="M31.0485 31.0485C30.6969 31.4002 30.22 31.5977 29.7227 31.5977C29.2254 31.5977 28.7485 31.4002 28.3969 31.0485L20 22.6516L11.6031 31.0485C11.2515 31.4002 10.7746 31.5977 10.2773 31.5977C9.78 31.5977 9.30309 31.4002 8.95146 31.0485C8.59983 30.6969 8.40228 30.22 8.40228 29.7227C8.40228 29.2254 8.59983 28.7485 8.95146 28.3969L17.3483 20L8.95146 11.6031C8.59983 11.2515 8.40228 10.7746 8.40228 10.2773C8.40228 9.78 8.59983 9.30308 8.95146 8.95145C9.30309 8.59982 9.78 8.40228 10.2773 8.40228C10.7746 8.40228 11.2515 8.59982 11.6031 8.95145L20 17.3483L28.3969 8.95145C28.7485 8.59982 29.2254 8.40228 29.7227 8.40228C30.22 8.40228 30.6969 8.59982 31.0485 8.95145C31.4002 9.30308 31.5977 9.78 31.5977 10.2773C31.5977 10.7746 31.4002 11.2515 31.0485 11.6031L22.6517 20L31.0485 28.3969C31.4002 28.7485 31.5977 29.2254 31.5977 29.7227C31.5977 30.22 31.4002 30.6969 31.0485 31.0485Z" fill="#D92B26"/>
</g>
<defs>
<clipPath id="clip0_201_1206">
<rect width="40" height="40" fill="white"/>
</clipPath>
</defs>
</svg>
