<svg width="25" height="24" viewBox="0 0 25 24" fill="none" xmlns="http://www.w3.org/2000/svg">
<path d="M13.0146 4.89062H18.4146C18.9747 4.89062 19.2555 4.89062 19.4694 4.99962C19.6576 5.09549 19.8094 5.24836 19.9053 5.43652C20.0143 5.65044 20.0146 5.93067 20.0146 6.49072V7.23542C20.0147 7.47506 20.0147 7.59613 19.9873 7.71005C19.9628 7.81208 19.9219 7.90955 19.867 7.99902C19.8052 8.09994 19.719 8.18642 19.546 8.35938L18.0146 9.89075M7.51426 4.89062H5.61426C5.05421 4.89062 4.77446 4.89062 4.56055 4.99962C4.37238 5.09549 4.21952 5.24836 4.12364 5.43652C4.01465 5.65044 4.01465 5.93067 4.01465 6.49072V7.22798C4.01465 7.47257 4.01465 7.59496 4.04228 7.71005C4.06678 7.81208 4.10728 7.90955 4.16211 7.99902C4.22393 8.09991 4.31056 8.18653 4.4834 8.35938L9.54614 13.4221C9.71908 13.5951 9.80509 13.6811 9.86693 13.782C9.92175 13.8714 9.96281 13.9693 9.9873 14.0713C10.0147 14.1852 10.0147 14.3061 10.0146 14.5458V19.3016C10.0146 20.1588 10.0146 20.5877 10.1952 20.8459C10.3528 21.0713 10.5961 21.2216 10.8682 21.2618C11.1798 21.3078 11.5634 21.1164 12.3301 20.733L13.1301 20.333C13.4511 20.1725 13.6113 20.0919 13.7286 19.9722C13.8323 19.8663 13.9116 19.7391 13.96 19.599C14.0146 19.4405 14.0146 19.2606 14.0146 18.9016V14.5532C14.0146 14.3086 14.0146 14.1864 14.0423 14.0713C14.0668 13.9693 14.1073 13.8716 14.1621 13.7821C14.2237 13.6815 14.3098 13.5954 14.4815 13.4237L14.4834 13.422L15.5147 12.3907M15.5147 12.3907L5.01465 1.89062M15.5147 12.3907L19.0146 15.8906" stroke="#D92B26" stroke-width="2" stroke-linecap="round" stroke-linejoin="round"/>
</svg>
