<svg width="17" height="18" viewBox="0 0 17 18" fill="none" xmlns="http://www.w3.org/2000/svg">
<path d="M0 18V2C0 1.45 0.196 0.979002 0.588 0.587002C0.98 0.195002 1.45067 -0.000664969 2 1.69779e-06H8C8.55 1.69779e-06 9.021 0.196002 9.413 0.588002C9.805 0.980002 10.0007 1.45067 10 2V9H11C11.55 9 12.021 9.196 12.413 9.588C12.805 9.98 13.0007 10.4507 13 11V15.5C13 15.7833 13.096 16.021 13.288 16.213C13.48 16.405 13.7173 16.5007 14 16.5C14.2833 16.5 14.521 16.404 14.713 16.212C14.905 16.02 15.0007 15.7827 15 15.5V8.3C14.85 8.38334 14.6917 8.43767 14.525 8.463C14.3583 8.48834 14.1833 8.50067 14 8.5C13.3 8.5 12.7083 8.25833 12.225 7.775C11.7417 7.29167 11.5 6.7 11.5 6C11.5 5.46667 11.646 4.98734 11.938 4.562C12.23 4.13667 12.6173 3.83267 13.1 3.65L11 1.55L12.05 0.500002L15.75 4.1C16 4.35 16.1877 4.64167 16.313 4.975C16.4383 5.30834 16.5007 5.65 16.5 6V15.5C16.5 16.2 16.2583 16.7917 15.775 17.275C15.2917 17.7583 14.7 18 14 18C13.3 18 12.7083 17.7583 12.225 17.275C11.7417 16.7917 11.5 16.2 11.5 15.5V10.5H10V18H0ZM2 7H8V2H2V7ZM14 7C14.2833 7 14.521 6.904 14.713 6.712C14.905 6.52 15.0007 6.28267 15 6C15 5.71667 14.904 5.479 14.712 5.287C14.52 5.095 14.2827 4.99934 14 5C13.7167 5 13.479 5.096 13.287 5.288C13.095 5.48 12.9993 5.71734 13 6C13 6.28334 13.096 6.521 13.288 6.713C13.48 6.905 13.7173 7.00067 14 7Z" fill="#D92B26"/>
</svg>
