<svg width="23" height="22" viewBox="0 0 23 22" fill="none" xmlns="http://www.w3.org/2000/svg">
<path d="M5 10C4.80222 10 4.60888 10.0587 4.44443 10.1685C4.27998 10.2784 4.15181 10.4346 4.07612 10.6173C4.00043 10.8 3.98063 11.0011 4.01921 11.1951C4.0578 11.3891 4.15304 11.5673 4.29289 11.7071C4.43275 11.847 4.61093 11.9422 4.80491 11.9808C4.99889 12.0194 5.19996 11.9996 5.38268 11.9239C5.56541 11.8482 5.72159 11.72 5.83147 11.5556C5.94135 11.3911 6 11.1978 6 11C6 10.7348 5.89464 10.4804 5.70711 10.2929C5.51957 10.1054 5.26522 10 5 10ZM10.86 8.45L3.71 1.29C3.61676 1.19676 3.50607 1.1228 3.38425 1.07234C3.26243 1.02188 3.13186 0.995911 3 0.995911C2.86814 0.995911 2.73757 1.02188 2.61575 1.07234C2.49393 1.1228 2.38324 1.19676 2.29 1.29C2.1017 1.47831 1.99591 1.7337 1.99591 2C1.99591 2.2663 2.1017 2.5217 2.29 2.71L3.59 4H3C2.20435 4 1.44129 4.31607 0.87868 4.87868C0.31607 5.44129 0 6.20435 0 7V15C0 15.7957 0.31607 16.5587 0.87868 17.1213C1.44129 17.6839 2.20435 18 3 18H17.59L20.29 20.71C20.383 20.8037 20.4936 20.8781 20.6154 20.9289C20.7373 20.9797 20.868 21.0058 21 21.0058C21.132 21.0058 21.2627 20.9797 21.3846 20.9289C21.5064 20.8781 21.617 20.8037 21.71 20.71C21.8037 20.617 21.8781 20.5064 21.9289 20.3846C21.9797 20.2627 22.0058 20.132 22.0058 20C22.0058 19.868 21.9797 19.7373 21.9289 19.6154C21.8781 19.4936 21.8037 19.383 21.71 19.29L10.86 8.45ZM10.12 10.54L11.46 11.88C11.3185 11.9564 11.1608 11.9976 11 12C10.7348 12 10.4804 11.8946 10.2929 11.7071C10.1054 11.5196 10 11.2652 10 11C10.0024 10.8393 10.0436 10.6815 10.12 10.54ZM3 16C2.73478 16 2.48043 15.8946 2.29289 15.7071C2.10536 15.5196 2 15.2652 2 15V7C2 6.73479 2.10536 6.48043 2.29289 6.2929C2.48043 6.10536 2.73478 6 3 6H5.59L8.69 9.1C8.24713 9.63445 8.00328 10.3059 8 11C8 11.7957 8.31607 12.5587 8.87868 13.1213C9.44129 13.6839 10.2044 14 11 14C11.6941 13.9967 12.3656 13.7529 12.9 13.31L15.59 16H3ZM19 4H11.66C11.3948 4 11.1404 4.10536 10.9529 4.2929C10.7654 4.48043 10.66 4.73479 10.66 5C10.66 5.26522 10.7654 5.51957 10.9529 5.70711C11.1404 5.89465 11.3948 6 11.66 6H19C19.2652 6 19.5196 6.10536 19.7071 6.2929C19.8946 6.48043 20 6.73479 20 7V14.34C20 14.6052 20.1054 14.8596 20.2929 15.0471C20.4804 15.2346 20.7348 15.34 21 15.34C21.2652 15.34 21.5196 15.2346 21.7071 15.0471C21.8946 14.8596 22 14.6052 22 14.34V7C22 6.20435 21.6839 5.44129 21.1213 4.87868C20.5587 4.31607 19.7956 4 19 4ZM18 11C18 10.8022 17.9414 10.6089 17.8315 10.4444C17.7216 10.28 17.5654 10.1518 17.3827 10.0761C17.2 10.0004 16.9989 9.98063 16.8049 10.0192C16.6109 10.0578 16.4327 10.153 16.2929 10.2929C16.153 10.4327 16.0578 10.6109 16.0192 10.8049C15.9806 10.9989 16.0004 11.2 16.0761 11.3827C16.1518 11.5654 16.28 11.7216 16.4444 11.8315C16.6089 11.9414 16.8022 12 17 12C17.2652 12 17.5196 11.8946 17.7071 11.7071C17.8946 11.5196 18 11.2652 18 11Z" fill="#D92B26"/>
</svg>
