<svg width="12" height="11" viewBox="0 0 12 11" fill="none" xmlns="http://www.w3.org/2000/svg">
<path d="M3.37502 1.12501C3.12537 0.623574 2.7424 0.667966 2.35551 0.667966C1.66407 0.667966 0.585937 1.49618 0.585938 3.03756C0.585938 4.3008 1.14259 5.68361 3.01831 7.75218C4.82853 9.7485 7.20704 10.7812 9.18165 10.746C11.1563 10.7109 11.5625 9.01167 11.5625 8.43783C11.5625 8.18349 11.4047 8.05659 11.296 8.02211C10.6231 7.69917 9.382 7.09745 9.09962 6.98439C8.81723 6.87134 8.66979 7.02425 8.57813 7.10744C8.32206 7.35148 7.81444 8.07068 7.64063 8.23244C7.46683 8.39421 7.20771 8.31234 7.09988 8.25118C6.70308 8.09195 5.62719 7.6134 4.7696 6.78206C3.70899 5.75393 3.64675 5.4002 3.44693 5.08532C3.28707 4.83343 3.40437 4.67887 3.46291 4.61134C3.69142 4.34766 4.00695 3.94058 4.14845 3.73829C4.28996 3.53599 4.17762 3.22886 4.11022 3.03756C3.82033 2.21485 3.57474 1.52615 3.37502 1.12501Z" fill="white"/>
</svg>
