<svg width="18" height="22" viewBox="0 0 18 22" fill="none" xmlns="http://www.w3.org/2000/svg">
<path d="M9 4.00002C8.58334 4.00002 8.229 3.85402 7.937 3.56202C7.645 3.27002 7.49934 2.91602 7.5 2.50002C7.5 2.20002 7.58334 1.88736 7.75 1.56202C7.91667 1.23669 8.18334 0.874358 8.55 0.475024C8.58334 0.441691 8.73334 0.375024 9 0.275024C9.08334 0.275024 9.16267 0.291691 9.238 0.325024C9.31334 0.358358 9.384 0.408358 9.45 0.475024C9.81667 0.875024 10.0833 1.23769 10.25 1.56302C10.4167 1.88836 10.5 2.20069 10.5 2.50002C10.5 2.91669 10.3543 3.27102 10.063 3.56302C9.77167 3.85502 9.41734 4.00069 9 4.00002ZM4 4.00002C3.58334 4.00002 3.229 3.85402 2.937 3.56202C2.645 3.27002 2.49934 2.91602 2.5 2.50002C2.5 2.20002 2.58334 1.88736 2.75 1.56202C2.91667 1.23669 3.18334 0.874358 3.55 0.475024C3.58334 0.441691 3.73334 0.375024 4 0.275024C4.08334 0.275024 4.16267 0.291691 4.238 0.325024C4.31334 0.358358 4.384 0.408358 4.45 0.475024C4.81667 0.875024 5.08334 1.23769 5.25 1.56302C5.41667 1.88836 5.5 2.20069 5.5 2.50002C5.5 2.91669 5.35434 3.27102 5.063 3.56302C4.77167 3.85502 4.41734 4.00069 4 4.00002ZM14 4.00002C13.5833 4.00002 13.229 3.85402 12.937 3.56202C12.645 3.27002 12.4993 2.91602 12.5 2.50002C12.5 2.20002 12.5833 1.88736 12.75 1.56202C12.9167 1.23669 13.1833 0.874358 13.55 0.475024C13.5833 0.441691 13.7333 0.375024 14 0.275024C14.0833 0.275024 14.1627 0.291691 14.238 0.325024C14.3133 0.358358 14.384 0.408358 14.45 0.475024C14.8167 0.875024 15.0833 1.23769 15.25 1.56302C15.4167 1.88836 15.5 2.20069 15.5 2.50002C15.5 2.91669 15.354 3.27102 15.062 3.56302C14.77 3.85502 14.416 4.00069 14 4.00002ZM1.5 22C1.08334 22 0.729002 21.854 0.437002 21.562C0.145002 21.27 -0.000664389 20.916 2.2779e-06 20.5V13L2.1 7.00002C2.2 6.70002 2.379 6.45836 2.637 6.27502C2.895 6.09169 3.18267 6.00002 3.5 6.00002H14.5C14.8167 6.00002 15.1043 6.09169 15.363 6.27502C15.6217 6.45836 15.8007 6.70002 15.9 7.00002L18 13V20.5C18 20.9167 17.8543 21.271 17.563 21.563C17.2717 21.855 16.9173 22.0007 16.5 22C16.0833 22 15.729 21.854 15.437 21.562C15.145 21.27 14.9993 20.916 15 20.5V20H3V20.5C3 20.9167 2.854 21.271 2.562 21.563C2.27 21.855 1.916 22.0007 1.5 22ZM2.8 11H15.2L14.15 8.00002H3.85L2.8 11ZM4.5 17C4.91667 17 5.271 16.854 5.563 16.562C5.855 16.27 6.00067 15.916 6 15.5C6 15.0834 5.854 14.729 5.562 14.437C5.27 14.145 4.916 13.9994 4.5 14C4.08334 14 3.729 14.146 3.437 14.438C3.145 14.73 2.99934 15.084 3 15.5C3 15.9167 3.146 16.271 3.438 16.563C3.73 16.855 4.084 17.0007 4.5 17ZM13.5 17C13.9167 17 14.271 16.854 14.563 16.562C14.855 16.27 15.0007 15.916 15 15.5C15 15.0834 14.854 14.729 14.562 14.437C14.27 14.145 13.916 13.9994 13.5 14C13.0833 14 12.729 14.146 12.437 14.438C12.145 14.73 11.9993 15.084 12 15.5C12 15.9167 12.146 16.271 12.438 16.563C12.73 16.855 13.084 17.0007 13.5 17ZM2 18H16V13H2V18Z" fill="#D92B26"/>
</svg>
