<svg width="24" height="24" viewBox="0 0 24 24" fill="none" xmlns="http://www.w3.org/2000/svg">
<path d="M23.0485 23.0486C22.6969 23.4002 22.22 23.5977 21.7227 23.5977C21.2254 23.5977 20.7485 23.4002 20.3969 23.0486L12 14.6517L3.60311 23.0486C3.25148 23.4002 2.77456 23.5977 2.27728 23.5977C1.78 23.5977 1.30309 23.4002 0.951457 23.0486C0.599826 22.6969 0.402282 22.22 0.402282 21.7227C0.402283 21.2254 0.599827 20.7485 0.951457 20.3969L9.34835 12L0.951457 3.60312C0.599826 3.25149 0.402282 2.77457 0.402282 2.27729C0.402283 1.78001 0.599827 1.3031 0.951457 0.951467C1.30309 0.599836 1.78 0.402292 2.27728 0.402292C2.77456 0.402292 3.25148 0.599836 3.60311 0.951467L12 9.34836L20.3969 0.951467C20.7485 0.599836 21.2254 0.402292 21.7227 0.402292C22.22 0.402292 22.6969 0.599836 23.0485 0.951467C23.4002 1.3031 23.5977 1.78001 23.5977 2.27729C23.5977 2.77457 23.4002 3.25149 23.0485 3.60312L14.6517 12L23.0485 20.3969C23.4002 20.7485 23.5977 21.2254 23.5977 21.7227C23.5977 22.22 23.4002 22.6969 23.0485 23.0486Z" fill="#D92B26"/>
</svg>
