<svg width="14" height="14" viewBox="0 0 14 14" fill="none" xmlns="http://www.w3.org/2000/svg">
<path d="M14 7C14 7.22278 13.9115 7.43644 13.754 7.59397C13.5964 7.7515 13.3828 7.84 13.16 7.84H7.84V13.16C7.84 13.3828 7.7515 13.5964 7.59397 13.754C7.43644 13.9115 7.22278 14 7 14C6.77722 14 6.56356 13.9115 6.40603 13.754C6.2485 13.5964 6.16 13.3828 6.16 13.16V7.84H0.84C0.617218 7.84 0.403561 7.7515 0.24603 7.59397C0.0884998 7.43644 0 7.22278 0 7C0 6.77722 0.0884998 6.56356 0.24603 6.40603C0.403561 6.2485 0.617218 6.16 0.84 6.16H6.16V0.84C6.16 0.617218 6.2485 0.403561 6.40603 0.24603C6.56356 0.0884998 6.77722 0 7 0C7.22278 0 7.43644 0.0884998 7.59397 0.24603C7.7515 0.403561 7.84 0.617218 7.84 0.84V6.16H13.16C13.3828 6.16 13.5964 6.2485 13.754 6.40603C13.9115 6.56356 14 6.77722 14 7Z" fill="#D92B26"/>
</svg>
