<svg width="115" height="46" viewBox="0 0 115 46" fill="none" xmlns="http://www.w3.org/2000/svg">
<g clip-path="url(#clip0_485_727)">
<path d="M28.2541 6.79978L30.9482 5.35669L14.6095 5.74275L28.2541 6.79978Z" fill="white"/>
<path d="M24.5866 8.91272L25.3053 11.2326L0.0576782 9.893L24.5866 8.91272Z" fill="white"/>
<path d="M24.8516 14.0851L23.7915 15.4596L6.17859 14.5653L24.8516 14.0851Z" fill="white"/>
<path d="M33.7953 2.18689L37.4118 4.42885L30.1012 9.22209C30.1012 9.22209 29.2297 10.3047 30.1012 10.5628C30.9726 10.821 32.3336 11.8257 32.3336 11.8257L91.541 13.7409C91.541 13.7409 102.998 13.7758 106.794 17.2806C106.794 17.2806 102.819 14.9444 91.7806 14.9782C85.9316 14.9968 38.8399 12.9164 38.8399 12.9164C38.8399 12.9164 51.0483 12.8478 52.8953 20.6831L85.9663 22.5041L52.3826 21.6796C52.3826 21.6796 51.5448 13.7583 37.899 13.7583H27.9301C27.9301 13.7583 27.9729 18.6551 27.1512 19.2737C26.3295 19.8923 26.0228 21.1342 26.0228 21.1342C26.0228 21.1342 25.2799 23.8658 27.665 24.5879C30.0502 25.31 33.205 26.495 33.205 26.495L27.1038 25.6658C27.1038 25.6658 25.4106 25.5112 25.0206 23.0622C24.6306 20.6133 25.6872 18.8609 26.3804 18.2946V11.928C26.3804 11.928 27.0748 9.91863 28.3039 9.27442C29.5329 8.6302 35.4861 4.78933 35.4861 4.78933L33.7953 2.18689Z" fill="#D92B26"/>
<path d="M34.0476 1.31005C34.0476 1.31005 64.1605 0.107671 68.8823 0.794911C73.6041 1.48215 79.2112 4.02529 83.109 6.56726C87.0068 9.10924 88.9233 9.86625 88.9233 9.86625C88.9233 9.86625 101.509 10.4163 106.433 12.6152C111.357 14.8141 112.384 16.1898 112.384 16.1898L109.307 14.6211L111.422 16.5549L112.384 16.8247C112.384 16.8247 111.73 17.7922 111.256 17.5724C110.781 17.3526 107.768 12.3396 99.5936 12.1001C91.4195 11.8605 87.7949 10.657 87.7949 10.657L81.9054 6.74518L86.2487 10.9035C86.2487 10.9035 54.2043 10.079 46.0986 9.09993C37.9928 8.12082 35.1713 8.58363 38.3007 5.85212C41.43 3.1206 46.5939 1.62867 46.5939 1.62867C46.5939 1.62867 37.7984 6.5882 38.9673 6.87774C40.0366 7.14403 46.0476 7.84057 46.0476 7.84057C46.0476 7.84057 84.0857 10.6663 84.5475 10.357C85.0093 10.0476 76.9834 2.54731 68.4391 1.95427L63.0784 1.63681L64.3688 9.41971L61.3043 1.60192L49.0011 1.69728L46.3856 8.15221L47.5521 1.67053C47.5521 1.67053 34.735 2.96013 34.0476 1.31005Z" fill="#D92B26"/>
<path d="M112.369 18.2771C112.369 18.2771 112.061 25.4588 110.915 26.5589C109.77 27.6589 106.999 27.5891 106.999 27.5891C106.999 27.5891 109.53 27.8659 111.445 27.5891C113.361 27.3124 112.505 18.6062 112.369 18.2771Z" fill="#D92B26"/>
<path d="M91.0283 21.4389C91.0283 21.4389 94.0037 16.3224 100.023 17.384C106.042 18.4457 108.124 25.6309 108.124 25.6309C108.124 25.6309 108.362 18.0027 101.078 16.4561C93.7943 14.9095 91.4727 19.5481 91.0237 21.6447" fill="#D92B26"/>
<path d="M33.2884 21.4389C33.2884 21.4389 36.2626 16.3224 42.2829 17.384C48.3032 18.4457 50.384 25.6309 50.384 25.6309C50.384 25.6309 50.6236 18.0027 43.3395 16.4561C36.0555 14.9095 33.7339 19.5481 33.2849 21.6447" fill="#D92B26"/>
<path d="M26.1964 36.9709L26.6061 34.2383H25.2174L25.73 31.6102H23.221L22.6563 34.3929H21.323L21.8357 31.6102H19.0142L18.6034 34.1882H17.1163L16.6036 36.9198H17.8083L17.4241 39.7036H15.9358L15.4729 42.2293H16.9612L16.3455 45.3225H19.0073L19.52 42.2805H20.8023L20.2896 45.3225H23.2141L23.6319 42.2793H25.1711L25.634 39.7536H24.4524L24.9153 36.9709H26.1964ZM21.6043 39.6676H20.0998L20.5072 37.2628H21.9781L21.6043 39.6676Z" fill="#D92B26"/>
<path d="M27.7911 31.6102V45.3213H30.5096V38.0791L30.8684 38.1303L33.2281 43.3363V45.3213H35.9987V31.6102H33.382V37.5628L30.5096 31.6102H27.7911Z" fill="#D92B26"/>
<path d="M45.4885 31.6102H37.3319V34.2138H45.4885V31.6102Z" fill="#D92B26"/>
<path d="M45.4885 37.1639H37.3319V39.7675H45.4885V37.1639Z" fill="#D92B26"/>
<path d="M45.4885 42.7177H37.3319V45.3213H45.4885V42.7177Z" fill="#D92B26"/>
<path d="M102.649 38.5106C102.649 39.82 102.666 41.1305 102.649 42.441C102.616 44.4074 101.641 45.3807 99.7093 45.4004C98.7719 45.4097 97.8333 45.4342 96.8982 45.4004C95.4261 45.3423 94.3521 44.3016 94.3301 42.8178C94.2873 39.9525 94.2792 37.085 94.3301 34.2197C94.3579 32.6313 95.3902 31.6266 96.9572 31.5452C97.9745 31.4963 98.9964 31.5033 100.012 31.5452C101.592 31.6173 102.579 32.6022 102.636 34.2046C102.687 35.6361 102.646 37.0698 102.646 38.5071L102.649 38.5106ZM99.891 38.535C99.891 37.514 99.8574 36.4907 99.9002 35.4721C99.943 34.4534 99.3679 34.3313 98.5763 34.3639C97.8414 34.3953 97.0718 34.2546 97.0996 35.4256C97.1447 37.4675 97.1412 39.5118 97.0996 41.5538C97.0753 42.7492 97.8749 42.5329 98.589 42.5701C99.3817 42.6119 99.9535 42.4864 99.9025 41.477C99.8528 40.4991 99.8979 39.5165 99.891 38.535Z" fill="white"/>
<path d="M49.3945 39.7838V45.3515H46.7269V37.0348C48.0659 37.0348 49.4304 36.9918 50.7914 37.05C51.8329 37.0941 52.238 36.743 52.2391 35.6464C52.2403 34.5498 51.863 34.1952 50.8087 34.251C49.4767 34.3196 48.1388 34.2673 46.7223 34.2673V31.5044C48.7858 31.5044 50.8515 31.4102 52.9023 31.5404C54.114 31.616 54.9391 32.7567 54.9923 34.0475C55.0352 35.0696 55.034 36.0953 54.9923 37.1162C54.938 38.707 53.9739 39.6908 52.3757 39.7745C51.4522 39.8233 50.5194 39.7838 49.3945 39.7838Z" fill="white"/>
<path d="M64.6303 31.5846H56.4736V34.1882H64.6303V31.5846Z" fill="white"/>
<path d="M64.6303 37.1384H56.4736V39.742H64.6303V37.1384Z" fill="white"/>
<path d="M64.6303 42.6921H56.4736V45.2957H64.6303V42.6921Z" fill="white"/>
<path d="M71.3242 36.2743H74.1457V33.5428C74.1457 33.5428 73.3761 31.5846 72.2222 31.5846H67.6092C67.6092 31.5846 65.8131 32.2288 65.8131 33.3882V36.0487L71.2524 41.6409C71.2524 41.6409 71.3809 42.5083 71.1494 42.5897C70.918 42.6711 68.8927 42.5897 68.8927 42.5897C68.8927 42.5897 68.7133 42.7758 68.7133 42.1048V40.7338H65.8201V43.5944C65.8201 43.5944 66.445 45.3515 67.6092 45.3515H72.3414C72.3414 45.3515 74.1075 44.934 74.1075 43.6991V41.2234C74.1075 41.2234 74.0415 40.5176 73.2198 39.6338C72.3981 38.75 68.7827 35.3731 68.7827 35.3731C68.7827 35.3731 68.5004 34.3929 69.1427 34.4196C69.785 34.4464 71.0916 34.3929 71.0916 34.3929C71.0916 34.3929 71.323 34.4708 71.323 34.9347L71.3242 36.2743Z" fill="white"/>
<path d="M75.4001 31.5846H78.1962V37.0348H80.8383L80.8371 31.5846H83.7871V45.3468H80.8638V39.9222H78.2471V45.3468H75.4001V31.5846Z" fill="white"/>
<path d="M85.0914 31.5846V45.3468H87.9384V38.9035L90.5296 45.3468H93.5305L90.7599 38.5105L93.4275 31.5846H90.5041L87.9384 38.0267V31.5846H85.0914Z" fill="white"/>
<path d="M103.874 45.3468H106.61V37.6837H107.037L109.397 42.8211L111.963 37.6837H112.322V45.3468H114.903V31.5846H112.15L109.389 37.0314L106.712 31.5846H103.874V45.3468Z" fill="white"/>
</g>
<defs>
<clipPath id="clip0_485_727">
<rect width="115" height="45" fill="white" transform="translate(0 0.5)"/>
</clipPath>
</defs>
</svg>
