<svg width="1286" height="1286" viewBox="0 0 1286 1286" fill="none" xmlns="http://www.w3.org/2000/svg">
<g clip-path="url(#clip0_47_843)">
<path d="M1285.57 0H0V1285.57H1285.57V0Z" fill="black"/>
<path d="M323.94 503.47L347.22 491.06L206.04 494.38L323.94 503.47Z" fill="white"/>
<path d="M292.25 521.64L298.46 541.59L80.2998 530.07L292.25 521.64Z" fill="white"/>
<path d="M294.54 566.12L285.38 577.94L133.19 570.25L294.54 566.12Z" fill="white"/>
<path d="M371.82 463.8L403.07 483.08L339.9 524.3C339.9 524.3 332.37 533.61 339.9 535.83C347.43 538.05 359.19 546.69 359.19 546.69L870.79 563.16C870.79 563.16 969.79 563.46 1002.59 593.6C1002.59 593.6 968.24 573.51 872.86 573.8C822.32 573.96 415.41 556.07 415.41 556.07C415.41 556.07 520.9 555.48 536.86 622.86L822.62 638.52L532.43 631.43C532.43 631.43 525.19 563.31 407.28 563.31H321.14C321.14 563.31 321.51 605.42 314.41 610.74C307.31 616.06 304.66 626.74 304.66 626.74C304.66 626.74 298.24 650.23 318.85 656.44C339.46 662.65 366.72 672.84 366.72 672.84L314 665.71C314 665.71 299.37 664.38 296 643.32C292.63 622.26 301.76 607.19 307.75 602.32V547.57C307.75 547.57 313.75 530.29 324.37 524.75C334.99 519.21 386.43 486.18 386.43 486.18L371.82 463.8Z" fill="#D41B21"/>
<path d="M374 456.26C374 456.26 634.2 445.92 675 451.83C715.8 457.74 764.25 479.61 797.93 501.47C831.61 523.33 848.17 529.84 848.17 529.84C848.17 529.84 956.92 534.57 999.47 553.48C1042.02 572.39 1050.89 584.22 1050.89 584.22L1024.3 570.73L1042.58 587.36L1050.89 589.68C1050.89 589.68 1045.24 598 1041.14 596.11C1037.04 594.22 1011 551.11 940.37 549.05C869.74 546.99 838.42 536.64 838.42 536.64L787.53 503L825.06 538.76C825.06 538.76 548.17 531.67 478.13 523.25C408.09 514.83 383.71 518.81 410.75 495.32C437.79 471.83 482.41 459 482.41 459C482.41 459 406.41 501.65 416.51 504.14C425.75 506.43 477.69 512.42 477.69 512.42C477.69 512.42 806.37 536.72 810.36 534.06C814.35 531.4 745 466.9 671.17 461.8L624.85 459.07L636 526L609.52 458.77L503.21 459.59L480.61 515.1L490.69 459.36C490.69 459.36 379.94 470.45 374 456.26Z" fill="#D41B21"/>
<path d="M1050.76 602.17C1050.76 602.17 1048.1 663.93 1038.2 673.39C1028.3 682.85 1004.36 682.25 1004.36 682.25C1004.36 682.25 1026.23 684.63 1042.78 682.25C1059.33 679.87 1051.94 605 1050.76 602.17Z" fill="#D41B21"/>
<path d="M866.36 629.36C866.36 629.36 892.07 585.36 944.08 594.49C996.09 603.62 1014.08 665.41 1014.08 665.41C1014.08 665.41 1016.14 599.81 953.2 586.51C890.26 573.21 870.2 613.1 866.32 631.13" fill="#D41B21"/>
<path d="M367.44 629.36C367.44 629.36 393.14 585.36 445.16 594.49C497.18 603.62 515.16 665.41 515.16 665.41C515.16 665.41 517.23 599.81 454.29 586.51C391.35 573.21 371.29 613.1 367.41 631.13" fill="#D41B21"/>
<path d="M306.16 762.93L309.7 739.43H297.7L302.13 716.83H280.45L275.57 740.76H264.05L268.48 716.83H244.1L240.55 739H227.7L223.27 762.49H233.68L230.36 786.43H217.5L213.5 808.15H226.36L221.04 834.75H244.04L248.47 808.59H259.55L255.12 834.75H280.39L284 808.58H297.3L301.3 786.86H291.09L295.09 762.93H306.16ZM266.48 786.12H253.48L257 765.44H269.71L266.48 786.12Z" fill="#D41B21"/>
<path d="M319.94 716.83V834.74H343.43V772.46L346.53 772.9L366.92 817.67V834.74H390.86V716.83H368.25V768.02L343.43 716.83H319.94Z" fill="#D41B21"/>
<path d="M472.86 716.83H402.38V739.22H472.86V716.83Z" fill="#D41B21"/>
<path d="M472.86 764.59H402.38V786.98H472.86V764.59Z" fill="#D41B21"/>
<path d="M472.86 812.35H402.38V834.74H472.86V812.35Z" fill="#D41B21"/>
<path d="M966.77 776.17C966.77 787.43 966.92 798.7 966.77 809.97C966.49 826.88 958.06 835.25 941.37 835.42C933.27 835.5 925.16 835.71 917.08 835.42C904.36 834.92 895.08 825.97 894.89 813.21C894.52 788.57 894.45 763.91 894.89 739.27C895.13 725.61 904.05 716.97 917.59 716.27C926.38 715.85 935.21 715.91 943.99 716.27C957.64 716.89 966.17 725.36 966.66 739.14C967.1 751.45 966.75 763.78 966.75 776.14L966.77 776.17ZM942.94 776.38C942.94 767.6 942.65 758.8 943.02 750.04C943.39 741.28 938.42 740.23 931.58 740.51C925.23 740.78 918.58 739.57 918.82 749.64C919.21 767.2 919.18 784.78 918.82 802.34C918.61 812.62 925.52 810.76 931.69 811.08C938.54 811.44 943.48 810.36 943.04 801.68C942.61 793.27 943 784.82 942.94 776.38Z" fill="white"/>
<path d="M506.61 787.12V835H483.56V763.48C495.13 763.48 506.92 763.11 518.68 763.61C527.68 763.99 531.18 760.97 531.19 751.54C531.2 742.11 527.94 739.06 518.83 739.54C507.32 740.13 495.76 739.68 483.52 739.68V715.92C501.35 715.92 519.2 715.11 536.92 716.23C547.39 716.88 554.52 726.69 554.98 737.79C555.35 746.58 555.34 755.4 554.98 764.18C554.51 777.86 546.18 786.32 532.37 787.04C524.39 787.46 516.33 787.12 506.61 787.12Z" fill="white"/>
<path d="M638.26 716.61H567.78V739H638.26V716.61Z" fill="white"/>
<path d="M638.26 764.37H567.78V786.76H638.26V764.37Z" fill="white"/>
<path d="M638.26 812.13H567.78V834.52H638.26V812.13Z" fill="white"/>
<path d="M696.1 756.94H720.48V733.45C720.48 733.45 713.83 716.61 703.86 716.61H664C664 716.61 648.48 722.15 648.48 732.12V755L695.48 803.09C695.48 803.09 696.591 810.55 694.591 811.25C692.591 811.95 675.091 811.25 675.091 811.25C675.091 811.25 673.54 812.85 673.54 807.08V795.29H648.54V819.89C648.54 819.89 653.94 835 664 835H704.891C704.891 835 720.151 831.41 720.151 820.79V799.5C720.151 799.5 719.58 793.43 712.48 785.83C705.38 778.23 674.141 749.19 674.141 749.19C674.141 749.19 671.7 740.76 677.25 740.99C682.8 741.22 694.091 740.76 694.091 740.76C694.091 740.76 696.091 741.43 696.091 745.42L696.1 756.94Z" fill="white"/>
<path d="M731.32 716.61H755.48V763.48H778.31L778.3 716.61H803.79V834.96H778.53V788.31H755.92V834.96H731.32V716.61Z" fill="white"/>
<path d="M815.06 716.61V834.96H839.66V779.55L862.05 834.96H887.98L864.04 776.17L887.09 716.61H861.83L839.66 772.01V716.61H815.06Z" fill="white"/>
<path d="M977.36 834.96H1001V769.06H1004.69L1025.08 813.24L1047.25 769.06H1050.35V834.96H1072.66V716.61H1048.87L1025.01 763.45L1001.88 716.61H977.36V834.96Z" fill="white"/>
</g>
<defs>
<clipPath id="clip0_47_843">
<rect width="1285.57" height="1285.57" fill="white"/>
</clipPath>
</defs>
</svg>
