<svg width="115" height="46" viewBox="0 0 115 46" fill="none" xmlns="http://www.w3.org/2000/svg">
<g clip-path="url(#clip0_162_387)">
<path d="M28.2539 6.79978L30.9481 5.35669L14.6094 5.74275L28.2539 6.79978Z" fill="#161616"/>
<path d="M24.5866 8.91272L25.3053 11.2326L0.0576172 9.893L24.5866 8.91272Z" fill="#161616"/>
<path d="M24.8515 14.0851L23.7914 15.4596L6.17847 14.5653L24.8515 14.0851Z" fill="#161616"/>
<path d="M33.7951 2.18689L37.4117 4.42885L30.101 9.22209C30.101 9.22209 29.2296 10.3047 30.101 10.5628C30.9725 10.821 32.3335 11.8257 32.3335 11.8257L91.5409 13.7409C91.5409 13.7409 102.998 13.7758 106.794 17.2806C106.794 17.2806 102.819 14.9444 91.7804 14.9782C85.9314 14.9968 38.8398 12.9164 38.8398 12.9164C38.8398 12.9164 51.0481 12.8478 52.8952 20.6831L85.9662 22.5041L52.3825 21.6796C52.3825 21.6796 51.5446 13.7583 37.8989 13.7583H27.9299C27.9299 13.7583 27.9728 18.6551 27.1511 19.2737C26.3294 19.8923 26.0227 21.1342 26.0227 21.1342C26.0227 21.1342 25.2797 23.8658 27.6649 24.5879C30.0501 25.31 33.2049 26.495 33.2049 26.495L27.1036 25.6658C27.1036 25.6658 25.4105 25.5112 25.0205 23.0622C24.6305 20.6133 25.6871 18.8609 26.3803 18.2946V11.928C26.3803 11.928 27.0747 9.91863 28.3038 9.27442C29.5328 8.6302 35.4859 4.78933 35.4859 4.78933L33.7951 2.18689Z" fill="#D92B26"/>
<path d="M34.0474 1.31005C34.0474 1.31005 64.1603 0.107671 68.8821 0.794911C73.6038 1.48215 79.211 4.02529 83.1087 6.56726C87.0065 9.10924 88.923 9.86625 88.923 9.86625C88.923 9.86625 101.509 10.4163 106.433 12.6152C111.357 14.8141 112.384 16.1898 112.384 16.1898L109.307 14.6211L111.422 16.5549L112.384 16.8247C112.384 16.8247 111.73 17.7922 111.255 17.5724C110.781 17.3526 107.767 12.3396 99.5933 12.1001C91.4193 11.8605 87.7946 10.657 87.7946 10.657L81.9052 6.74518L86.2485 10.9035C86.2485 10.9035 54.204 10.079 46.0983 9.09993C37.9926 8.12082 35.1711 8.58363 38.3004 5.85212C41.4298 3.1206 46.5936 1.62867 46.5936 1.62867C46.5936 1.62867 37.7982 6.5882 38.967 6.87774C40.0364 7.14403 46.0474 7.84057 46.0474 7.84057C46.0474 7.84057 84.0855 10.6663 84.5473 10.357C85.009 10.0476 76.9832 2.54731 68.4388 1.95427L63.0782 1.63681L64.3686 9.41971L61.3041 1.60192L49.0008 1.69728L46.3853 8.15221L47.5519 1.67053C47.5519 1.67053 34.7348 2.96013 34.0474 1.31005Z" fill="#D92B26"/>
<path d="M112.369 18.2771C112.369 18.2771 112.061 25.4588 110.915 26.5589C109.77 27.6589 106.999 27.5891 106.999 27.5891C106.999 27.5891 109.53 27.8659 111.445 27.5891C113.361 27.3124 112.505 18.6062 112.369 18.2771Z" fill="#D92B26"/>
<path d="M91.0283 21.4389C91.0283 21.4389 94.0037 16.3224 100.023 17.384C106.042 18.4457 108.124 25.6309 108.124 25.6309C108.124 25.6309 108.362 18.0027 101.078 16.4561C93.7943 14.9095 91.4727 19.5481 91.0237 21.6447" fill="#D92B26"/>
<path d="M33.2884 21.4389C33.2884 21.4389 36.2626 16.3224 42.2829 17.384C48.3032 18.4457 50.384 25.6309 50.384 25.6309C50.384 25.6309 50.6236 18.0027 43.3395 16.4561C36.0555 14.9095 33.7339 19.5481 33.2849 21.6447" fill="#D92B26"/>
<path d="M26.1964 36.9709L26.6061 34.2383H25.2174L25.73 31.6102H23.221L22.6563 34.3929H21.323L21.8357 31.6102H19.0142L18.6034 34.1882H17.1163L16.6036 36.9198H17.8083L17.4241 39.7036H15.9358L15.4729 42.2293H16.9612L16.3455 45.3225H19.0073L19.52 42.2805H20.8023L20.2896 45.3225H23.2141L23.6319 42.2793H25.1711L25.634 39.7536H24.4524L24.9153 36.9709H26.1964ZM21.6043 39.6676H20.0998L20.5072 37.2628H21.9781L21.6043 39.6676Z" fill="#D92B26"/>
<path d="M27.791 31.6102V45.3213H30.5095V38.0791L30.8683 38.1303L33.228 43.3363V45.3213H35.9986V31.6102H33.3819V37.5628L30.5095 31.6102H27.791Z" fill="#D92B26"/>
<path d="M45.4884 31.6102H37.3318V34.2138H45.4884V31.6102Z" fill="#D92B26"/>
<path d="M45.4884 37.1639H37.3318V39.7675H45.4884V37.1639Z" fill="#D92B26"/>
<path d="M45.4884 42.7177H37.3318V45.3213H45.4884V42.7177Z" fill="#D92B26"/>
<path d="M102.649 38.5106C102.649 39.82 102.666 41.1305 102.649 42.441C102.616 44.4074 101.641 45.3807 99.7093 45.4004C98.7719 45.4097 97.8333 45.4342 96.8982 45.4004C95.4261 45.3423 94.3521 44.3016 94.3301 42.8178C94.2873 39.9525 94.2792 37.085 94.3301 34.2197C94.3579 32.6313 95.3902 31.6266 96.9572 31.5452C97.9745 31.4963 98.9964 31.5033 100.012 31.5452C101.592 31.6173 102.579 32.6022 102.636 34.2046C102.687 35.6361 102.646 37.0698 102.646 38.5071L102.649 38.5106ZM99.891 38.535C99.891 37.514 99.8574 36.4907 99.9002 35.4721C99.943 34.4534 99.3679 34.3313 98.5763 34.3639C97.8414 34.3953 97.0718 34.2546 97.0996 35.4256C97.1447 37.4675 97.1412 39.5118 97.0996 41.5538C97.0753 42.7492 97.8749 42.5329 98.589 42.5701C99.3817 42.6119 99.9535 42.4864 99.9025 41.477C99.8528 40.4991 99.8979 39.5165 99.891 38.535Z" fill="#161616"/>
<path d="M49.3944 39.7838V45.3515H46.7268V37.0348C48.0658 37.0348 49.4302 36.9918 50.7912 37.05C51.8328 37.0941 52.2379 36.743 52.239 35.6464C52.2402 34.5498 51.8629 34.1952 50.8086 34.251C49.4765 34.3196 48.1387 34.2673 46.7222 34.2673V31.5044C48.7856 31.5044 50.8514 31.4102 52.9021 31.5404C54.1138 31.616 54.939 32.7567 54.9922 34.0475C55.035 35.0696 55.0339 36.0953 54.9922 37.1162C54.9378 38.707 53.9738 39.6908 52.3756 39.7745C51.452 39.8233 50.5193 39.7838 49.3944 39.7838Z" fill="#161616"/>
<path d="M64.6303 31.5846H56.4736V34.1882H64.6303V31.5846Z" fill="#161616"/>
<path d="M64.6303 37.1384H56.4736V39.742H64.6303V37.1384Z" fill="#161616"/>
<path d="M64.6303 42.6921H56.4736V45.2957H64.6303V42.6921Z" fill="#161616"/>
<path d="M71.324 36.2743H74.1455V33.5428C74.1455 33.5428 73.3759 31.5846 72.2221 31.5846H67.6091C67.6091 31.5846 65.813 32.2288 65.813 33.3882V36.0487L71.2523 41.6409C71.2523 41.6409 71.3808 42.5083 71.1493 42.5897C70.9178 42.6711 68.8926 42.5897 68.8926 42.5897C68.8926 42.5897 68.7132 42.7758 68.7132 42.1048V40.7338H65.8199V43.5944C65.8199 43.5944 66.4449 45.3515 67.6091 45.3515H72.3413C72.3413 45.3515 74.1074 44.934 74.1074 43.6991V41.2234C74.1074 41.2234 74.0414 40.5176 73.2197 39.6338C72.398 38.75 68.7826 35.3731 68.7826 35.3731C68.7826 35.3731 68.5002 34.3929 69.1425 34.4196C69.7848 34.4464 71.0914 34.3929 71.0914 34.3929C71.0914 34.3929 71.3229 34.4708 71.3229 34.9347L71.324 36.2743Z" fill="#161616"/>
<path d="M75.4001 31.5846H78.1962V37.0348H80.8383L80.8371 31.5846H83.7871V45.3468H80.8638V39.9222H78.2471V45.3468H75.4001V31.5846Z" fill="#161616"/>
<path d="M85.0913 31.5846V45.3468H87.9383V38.9035L90.5295 45.3468H93.5303L90.7598 38.5105L93.4273 31.5846H90.504L87.9383 38.0267V31.5846H85.0913Z" fill="#161616"/>
<path d="M103.874 45.3468H106.61V37.6837H107.037L109.397 42.8211L111.963 37.6837H112.321V45.3468H114.903V31.5846H112.15L109.389 37.0314L106.712 31.5846H103.874V45.3468Z" fill="#161616"/>
</g>
<defs>
<clipPath id="clip0_162_387">
<rect width="115" height="45" fill="white" transform="translate(0 0.5)"/>
</clipPath>
</defs>
</svg>
