<svg width="40" height="40" viewBox="0 0 40 40" fill="none" xmlns="http://www.w3.org/2000/svg">
<path d="M35.625 20C35.625 20.4973 35.4275 20.9742 35.0758 21.3258C34.7242 21.6775 34.2473 21.875 33.75 21.875H21.875V33.75C21.875 34.2473 21.6775 34.7242 21.3258 35.0758C20.9742 35.4275 20.4973 35.625 20 35.625C19.5027 35.625 19.0258 35.4275 18.6742 35.0758C18.3225 34.7242 18.125 34.2473 18.125 33.75V21.875H6.25C5.75272 21.875 5.27581 21.6775 4.92417 21.3258C4.57254 20.9742 4.375 20.4973 4.375 20C4.375 19.5027 4.57254 19.0258 4.92417 18.6742C5.27581 18.3225 5.75272 18.125 6.25 18.125H18.125V6.25C18.125 5.75272 18.3225 5.27581 18.6742 4.92417C19.0258 4.57254 19.5027 4.375 20 4.375C20.4973 4.375 20.9742 4.57254 21.3258 4.92417C21.6775 5.27581 21.875 5.75272 21.875 6.25V18.125H33.75C34.2473 18.125 34.7242 18.3225 35.0758 18.6742C35.4275 19.0258 35.625 19.5027 35.625 20Z" fill="#D92B26"/>
</svg>
