<svg width="24" height="24" viewBox="0 0 24 24" fill="none" xmlns="http://www.w3.org/2000/svg">
<path d="M14.8328 16.975C15.019 16.7876 15.1235 16.5342 15.1235 16.27C15.1235 16.0058 15.019 15.7523 14.8328 15.565L11.2928 11.975L14.8328 8.43499C15.019 8.24762 15.1235 7.99417 15.1235 7.72999C15.1235 7.4658 15.019 7.21235 14.8328 7.02499C14.7398 6.93126 14.6292 6.85686 14.5073 6.80609C14.3855 6.75533 14.2548 6.72919 14.1228 6.72919C13.9907 6.72919 13.86 6.75533 13.7382 6.80609C13.6163 6.85686 13.5057 6.93126 13.4128 7.02499L9.17275 11.265C9.07902 11.3579 9.00463 11.4685 8.95386 11.5904C8.90309 11.7123 8.87695 11.843 8.87695 11.975C8.87695 12.107 8.90309 12.2377 8.95386 12.3596C9.00463 12.4814 9.07902 12.592 9.17275 12.685L13.4128 16.975C13.5057 17.0687 13.6163 17.1431 13.7382 17.1939C13.86 17.2446 13.9907 17.2708 14.1228 17.2708C14.2548 17.2708 14.3855 17.2446 14.5073 17.1939C14.6292 17.1431 14.7398 17.0687 14.8328 16.975Z" fill="#D92B26"/>
</svg>
