<svg width="24" height="24" viewBox="0 0 24 24" fill="none" xmlns="http://www.w3.org/2000/svg">
<path d="M9.16775 7.02501C8.98149 7.21238 8.87695 7.46583 8.87695 7.73001C8.87695 7.9942 8.98149 8.24765 9.16775 8.43501L12.7077 12.025L9.16775 15.565C8.98149 15.7524 8.87695 16.0058 8.87695 16.27C8.87695 16.5342 8.98149 16.7877 9.16775 16.975C9.26071 17.0687 9.37131 17.1431 9.49317 17.1939C9.61503 17.2447 9.74573 17.2708 9.87775 17.2708C10.0098 17.2708 10.1405 17.2447 10.2623 17.1939C10.3842 17.1431 10.4948 17.0687 10.5877 16.975L14.8277 12.735C14.9215 12.6421 14.9959 12.5315 15.0466 12.4096C15.0974 12.2877 15.1235 12.157 15.1235 12.025C15.1235 11.893 15.0974 11.7623 15.0466 11.6404C14.9959 11.5186 14.9215 11.408 14.8277 11.315L10.5877 7.02501C10.4948 6.93129 10.3842 6.85689 10.2623 6.80612C10.1405 6.75535 10.0098 6.72922 9.87775 6.72922C9.74573 6.72922 9.61503 6.75535 9.49317 6.80612C9.37131 6.85689 9.26071 6.93129 9.16775 7.02501Z" fill="#D92B26"/>
</svg>
