<svg width="24" height="24" viewBox="0 0 24 24" fill="none" xmlns="http://www.w3.org/2000/svg">
<path d="M20 6.48335C20 5.9233 19.9996 5.64307 19.8906 5.42915C19.7948 5.24099 19.6423 5.08812 19.4542 4.99225C19.2403 4.88326 18.9597 4.88326 18.3996 4.88326H5.59961C5.03956 4.88326 4.75981 4.88326 4.5459 4.99225C4.35774 5.08812 4.20487 5.24099 4.10899 5.42915C4 5.64307 4 5.9233 4 6.48335V7.22061C4 7.4652 4 7.58759 4.02763 7.70268C4.05213 7.80471 4.09263 7.90218 4.14746 7.99165C4.20928 8.09254 4.29591 8.17916 4.46875 8.35201L9.53149 13.4147C9.70443 13.5877 9.79044 13.6737 9.85228 13.7746C9.90711 13.8641 9.94816 13.9619 9.97266 14.0639C10 14.1778 10 14.2988 10 14.5384V19.2943C10 20.1515 10 20.5803 10.1805 20.8385C10.3382 21.0639 10.5814 21.2142 10.8535 21.2544C11.1651 21.3005 11.5487 21.109 12.3154 20.7256L13.1154 20.3256C13.4365 20.1651 13.5966 20.0845 13.7139 19.9648C13.8176 19.8589 13.897 19.7317 13.9453 19.5916C14 19.4332 14 19.2532 14 18.8943V14.5459C14 14.3013 14 14.179 14.0276 14.0639C14.0521 13.9619 14.0926 13.8641 14.1475 13.7746C14.2089 13.6744 14.2947 13.5886 14.4653 13.4179L14.4688 13.4147L19.5315 8.35201C19.7044 8.17905 19.7904 8.09257 19.8523 7.99165C19.9071 7.90218 19.9482 7.80471 19.9727 7.70268C20 7.58876 20 7.46769 20 7.22805V6.48335Z" stroke="#D92B26" stroke-width="2" stroke-linecap="round" stroke-linejoin="round"/>
</svg>
