<svg width="24" height="24" viewBox="0 0 24 24" fill="none" xmlns="http://www.w3.org/2000/svg">
<path d="M13 4.89062H18.4C18.9601 4.89062 19.2409 4.89062 19.4548 4.99962C19.6429 5.09549 19.7948 5.24836 19.8906 5.43652C19.9996 5.65044 20 5.93067 20 6.49072V7.23542C20 7.47506 20 7.59613 19.9727 7.71005C19.9482 7.81208 19.9072 7.90955 19.8524 7.99902C19.7906 8.09994 19.7043 8.18642 19.5314 8.35938L18 9.89075M7.49961 4.89062H5.59961C5.03956 4.89062 4.75981 4.89062 4.5459 4.99962C4.35774 5.09549 4.20487 5.24836 4.10899 5.43652C4 5.65044 4 5.93067 4 6.49072V7.22798C4 7.47257 4 7.59496 4.02763 7.71005C4.05213 7.81208 4.09263 7.90955 4.14746 7.99902C4.20928 8.09991 4.29591 8.18653 4.46875 8.35938L9.53149 13.4221C9.70443 13.5951 9.79044 13.6811 9.85228 13.782C9.90711 13.8714 9.94816 13.9693 9.97266 14.0713C10 14.1852 10 14.3061 10 14.5458V19.3016C10 20.1588 10 20.5877 10.1805 20.8459C10.3382 21.0713 10.5814 21.2216 10.8535 21.2618C11.1651 21.3078 11.5487 21.1164 12.3154 20.733L13.1154 20.333C13.4365 20.1725 13.5966 20.0919 13.7139 19.9722C13.8176 19.8663 13.897 19.7391 13.9453 19.599C14 19.4405 14 19.2606 14 18.9016V14.5532C14 14.3086 14 14.1864 14.0276 14.0713C14.0521 13.9693 14.0926 13.8716 14.1475 13.7821C14.2091 13.6815 14.2952 13.5954 14.4669 13.4237L14.4688 13.422L15.5001 12.3907M15.5001 12.3907L5 1.89062M15.5001 12.3907L19 15.8906" stroke="#D92B26" stroke-width="2" stroke-linecap="round" stroke-linejoin="round"/>
</svg>
