<svg width="24" height="24" viewBox="0 0 24 24" fill="none" xmlns="http://www.w3.org/2000/svg">
<path d="M4 21V5C4 4.45 4.196 3.979 4.588 3.587C4.98 3.195 5.45067 2.99934 6 3H12C12.55 3 13.021 3.196 13.413 3.588C13.805 3.98 14.0007 4.45067 14 5V12H15C15.55 12 16.021 12.196 16.413 12.588C16.805 12.98 17.0007 13.4507 17 14V18.5C17 18.7833 17.096 19.021 17.288 19.213C17.48 19.405 17.7173 19.5007 18 19.5C18.2833 19.5 18.521 19.404 18.713 19.212C18.905 19.02 19.0007 18.7827 19 18.5V11.3C18.85 11.3833 18.6917 11.4377 18.525 11.463C18.3583 11.4883 18.1833 11.5007 18 11.5C17.3 11.5 16.7083 11.2583 16.225 10.775C15.7417 10.2917 15.5 9.7 15.5 9C15.5 8.46667 15.646 7.98734 15.938 7.562C16.23 7.13667 16.6173 6.83267 17.1 6.65L15 4.55L16.05 3.5L19.75 7.1C20 7.35 20.1877 7.64167 20.313 7.975C20.4383 8.30834 20.5007 8.65 20.5 9V18.5C20.5 19.2 20.2583 19.7917 19.775 20.275C19.2917 20.7583 18.7 21 18 21C17.3 21 16.7083 20.7583 16.225 20.275C15.7417 19.7917 15.5 19.2 15.5 18.5V13.5H14V21H4ZM6 10H12V5H6V10ZM18 10C18.2833 10 18.521 9.904 18.713 9.712C18.905 9.52 19.0007 9.28267 19 9C19 8.71667 18.904 8.479 18.712 8.287C18.52 8.095 18.2827 7.99934 18 8C17.7167 8 17.479 8.096 17.287 8.288C17.095 8.48 16.9993 8.71734 17 9C17 9.28334 17.096 9.521 17.288 9.713C17.48 9.905 17.7173 10.0007 18 10Z" fill="#D92B26"/>
</svg>
