<svg width="24" height="24" viewBox="0 0 24 24" fill="none" xmlns="http://www.w3.org/2000/svg">
<path d="M12 5.00002C11.5833 5.00002 11.229 4.85402 10.937 4.56202C10.645 4.27002 10.4993 3.91602 10.5 3.50002C10.5 3.20002 10.5833 2.88736 10.75 2.56202C10.9167 2.23669 11.1833 1.87436 11.55 1.47502C11.5833 1.44169 11.7333 1.37502 12 1.27502C12.0833 1.27502 12.1627 1.29169 12.238 1.32502C12.3133 1.35836 12.384 1.40836 12.45 1.47502C12.8167 1.87502 13.0833 2.23769 13.25 2.56302C13.4167 2.88836 13.5 3.20069 13.5 3.50002C13.5 3.91669 13.3543 4.27102 13.063 4.56302C12.7717 4.85502 12.4173 5.00069 12 5.00002ZM7 5.00002C6.58334 5.00002 6.229 4.85402 5.937 4.56202C5.645 4.27002 5.49934 3.91602 5.5 3.50002C5.5 3.20002 5.58334 2.88736 5.75 2.56202C5.91667 2.23669 6.18334 1.87436 6.55 1.47502C6.58334 1.44169 6.73334 1.37502 7 1.27502C7.08334 1.27502 7.16267 1.29169 7.238 1.32502C7.31334 1.35836 7.384 1.40836 7.45 1.47502C7.81667 1.87502 8.08334 2.23769 8.25 2.56302C8.41667 2.88836 8.5 3.20069 8.5 3.50002C8.5 3.91669 8.35434 4.27102 8.063 4.56302C7.77167 4.85502 7.41734 5.00069 7 5.00002ZM17 5.00002C16.5833 5.00002 16.229 4.85402 15.937 4.56202C15.645 4.27002 15.4993 3.91602 15.5 3.50002C15.5 3.20002 15.5833 2.88736 15.75 2.56202C15.9167 2.23669 16.1833 1.87436 16.55 1.47502C16.5833 1.44169 16.7333 1.37502 17 1.27502C17.0833 1.27502 17.1627 1.29169 17.238 1.32502C17.3133 1.35836 17.384 1.40836 17.45 1.47502C17.8167 1.87502 18.0833 2.23769 18.25 2.56302C18.4167 2.88836 18.5 3.20069 18.5 3.50002C18.5 3.91669 18.354 4.27102 18.062 4.56302C17.77 4.85502 17.416 5.00069 17 5.00002ZM4.5 23C4.08334 23 3.729 22.854 3.437 22.562C3.145 22.27 2.99934 21.916 3 21.5V14L5.1 8.00002C5.2 7.70002 5.379 7.45836 5.637 7.27502C5.895 7.09169 6.18267 7.00002 6.5 7.00002H17.5C17.8167 7.00002 18.1043 7.09169 18.363 7.27502C18.6217 7.45836 18.8007 7.70002 18.9 8.00002L21 14V21.5C21 21.9167 20.8543 22.271 20.563 22.563C20.2717 22.855 19.9173 23.0007 19.5 23C19.0833 23 18.729 22.854 18.437 22.562C18.145 22.27 17.9993 21.916 18 21.5V21H6V21.5C6 21.9167 5.854 22.271 5.562 22.563C5.27 22.855 4.916 23.0007 4.5 23ZM5.8 12H18.2L17.15 9.00002H6.85L5.8 12ZM7.5 18C7.91667 18 8.271 17.854 8.563 17.562C8.855 17.27 9.00067 16.916 9 16.5C9 16.0834 8.854 15.729 8.562 15.437C8.27 15.145 7.916 14.9994 7.5 15C7.08334 15 6.729 15.146 6.437 15.438C6.145 15.73 5.99934 16.084 6 16.5C6 16.9167 6.146 17.271 6.438 17.563C6.73 17.855 7.084 18.0007 7.5 18ZM16.5 18C16.9167 18 17.271 17.854 17.563 17.562C17.855 17.27 18.0007 16.916 18 16.5C18 16.0834 17.854 15.729 17.562 15.437C17.27 15.145 16.916 14.9994 16.5 15C16.0833 15 15.729 15.146 15.437 15.438C15.145 15.73 14.9993 16.084 15 16.5C15 16.9167 15.146 17.271 15.438 17.563C15.73 17.855 16.084 18.0007 16.5 18ZM5 19H19V14H5V19Z" fill="#D92B26"/>
</svg>
