<svg width="18" height="23" viewBox="0 0 18 23" fill="none" xmlns="http://www.w3.org/2000/svg">
<path d="M9 4.4999C8.58333 4.4999 8.229 4.3539 7.937 4.0619C7.645 3.7699 7.49934 3.4159 7.5 2.9999C7.5 2.6999 7.58334 2.38724 7.75 2.0619C7.91667 1.73657 8.18334 1.37424 8.55 0.974902C8.58334 0.941569 8.73334 0.874902 9 0.774902C9.08333 0.774902 9.16267 0.791569 9.238 0.824902C9.31334 0.858236 9.384 0.908236 9.45 0.974902C9.81667 1.3749 10.0833 1.73757 10.25 2.0629C10.4167 2.38824 10.5 2.70057 10.5 2.9999C10.5 3.41657 10.3543 3.7709 10.063 4.0629C9.77167 4.3549 9.41734 4.50057 9 4.4999ZM4 4.4999C3.58334 4.4999 3.229 4.3539 2.937 4.0619C2.645 3.7699 2.49934 3.4159 2.5 2.9999C2.5 2.6999 2.58334 2.38724 2.75 2.0619C2.91667 1.73657 3.18334 1.37424 3.55 0.974902C3.58334 0.941569 3.73334 0.874902 4 0.774902C4.08334 0.774902 4.16267 0.791569 4.238 0.824902C4.31334 0.858236 4.384 0.908236 4.45 0.974902C4.81667 1.3749 5.08334 1.73757 5.25 2.0629C5.41667 2.38824 5.5 2.70057 5.5 2.9999C5.5 3.41657 5.35434 3.7709 5.063 4.0629C4.77167 4.3549 4.41734 4.50057 4 4.4999ZM14 4.4999C13.5833 4.4999 13.229 4.3539 12.937 4.0619C12.645 3.7699 12.4993 3.4159 12.5 2.9999C12.5 2.6999 12.5833 2.38724 12.75 2.0619C12.9167 1.73657 13.1833 1.37424 13.55 0.974902C13.5833 0.941569 13.7333 0.874902 14 0.774902C14.0833 0.774902 14.1627 0.791569 14.238 0.824902C14.3133 0.858236 14.384 0.908236 14.45 0.974902C14.8167 1.3749 15.0833 1.73757 15.25 2.0629C15.4167 2.38824 15.5 2.70057 15.5 2.9999C15.5 3.41657 15.354 3.7709 15.062 4.0629C14.77 4.3549 14.416 4.50057 14 4.4999ZM1.5 22.4999C1.08334 22.4999 0.729002 22.3539 0.437002 22.0619C0.145002 21.7699 -0.000664389 21.4159 2.2779e-06 20.9999V13.4999L2.1 7.4999C2.2 7.1999 2.379 6.95824 2.637 6.7749C2.895 6.59157 3.18267 6.4999 3.5 6.4999H14.5C14.8167 6.4999 15.1043 6.59157 15.363 6.7749C15.6217 6.95824 15.8007 7.1999 15.9 7.4999L18 13.4999V20.9999C18 21.4166 17.8543 21.7709 17.563 22.0629C17.2717 22.3549 16.9173 22.5006 16.5 22.4999C16.0833 22.4999 15.729 22.3539 15.437 22.0619C15.145 21.7699 14.9993 21.4159 15 20.9999V20.4999H3V20.9999C3 21.4166 2.854 21.7709 2.562 22.0629C2.27 22.3549 1.916 22.5006 1.5 22.4999ZM2.8 11.4999H15.2L14.15 8.4999H3.85L2.8 11.4999ZM4.5 17.4999C4.91667 17.4999 5.271 17.3539 5.563 17.0619C5.855 16.7699 6.00067 16.4159 6 15.9999C6 15.5832 5.854 15.2289 5.562 14.9369C5.27 14.6449 4.916 14.4992 4.5 14.4999C4.08334 14.4999 3.729 14.6459 3.437 14.9379C3.145 15.2299 2.99934 15.5839 3 15.9999C3 16.4166 3.146 16.7709 3.438 17.0629C3.73 17.3549 4.084 17.5006 4.5 17.4999ZM13.5 17.4999C13.9167 17.4999 14.271 17.3539 14.563 17.0619C14.855 16.7699 15.0007 16.4159 15 15.9999C15 15.5832 14.854 15.2289 14.562 14.9369C14.27 14.6449 13.916 14.4992 13.5 14.4999C13.0833 14.4999 12.729 14.6459 12.437 14.9379C12.145 15.2299 11.9993 15.5839 12 15.9999C12 16.4166 12.146 16.7709 12.438 17.0629C12.73 17.3549 13.084 17.5006 13.5 17.4999ZM2 18.4999H16V13.4999H2V18.4999Z" fill="#D92B26"/>
</svg>
