<svg width="17" height="19" viewBox="0 0 17 19" fill="none" xmlns="http://www.w3.org/2000/svg">
<path d="M0 18.5V2.5C0 1.95 0.196 1.479 0.588 1.087C0.98 0.695002 1.45067 0.499335 2 0.500002H8C8.55 0.500002 9.021 0.696002 9.413 1.088C9.805 1.48 10.0007 1.95067 10 2.5V9.5H11C11.55 9.5 12.021 9.696 12.413 10.088C12.805 10.48 13.0007 10.9507 13 11.5V16C13 16.2833 13.096 16.521 13.288 16.713C13.48 16.905 13.7173 17.0007 14 17C14.2833 17 14.521 16.904 14.713 16.712C14.905 16.52 15.0007 16.2827 15 16V8.8C14.85 8.88334 14.6917 8.93767 14.525 8.963C14.3583 8.98834 14.1833 9.00067 14 9C13.3 9 12.7083 8.75834 12.225 8.275C11.7417 7.79167 11.5 7.2 11.5 6.5C11.5 5.96667 11.646 5.48734 11.938 5.062C12.23 4.63667 12.6173 4.33267 13.1 4.15L11 2.05L12.05 1L15.75 4.6C16 4.85 16.1877 5.14167 16.313 5.475C16.4383 5.80834 16.5007 6.15 16.5 6.5V16C16.5 16.7 16.2583 17.2917 15.775 17.775C15.2917 18.2583 14.7 18.5 14 18.5C13.3 18.5 12.7083 18.2583 12.225 17.775C11.7417 17.2917 11.5 16.7 11.5 16V11H10V18.5H0ZM2 7.5H8V2.5H2V7.5ZM14 7.5C14.2833 7.5 14.521 7.404 14.713 7.212C14.905 7.02 15.0007 6.78267 15 6.5C15 6.21667 14.904 5.979 14.712 5.787C14.52 5.595 14.2827 5.49934 14 5.5C13.7167 5.5 13.479 5.596 13.287 5.788C13.095 5.98 12.9993 6.21734 13 6.5C13 6.78334 13.096 7.021 13.288 7.213C13.48 7.405 13.7173 7.50067 14 7.5Z" fill="#D92B26"/>
</svg>
