<svg width="23" height="22" viewBox="0 0 23 22" fill="none" xmlns="http://www.w3.org/2000/svg">
<path d="M5 9.99994C4.80222 9.99994 4.60888 10.0586 4.44443 10.1685C4.27998 10.2784 4.15181 10.4345 4.07612 10.6173C4.00043 10.8 3.98063 11.001 4.01921 11.195C4.0578 11.389 4.15304 11.5672 4.29289 11.707C4.43275 11.8469 4.61093 11.9421 4.80491 11.9807C4.99889 12.0193 5.19996 11.9995 5.38268 11.9238C5.56541 11.8481 5.72159 11.72 5.83147 11.5555C5.94135 11.3911 6 11.1977 6 10.9999C6 10.7347 5.89464 10.4804 5.70711 10.2928C5.51957 10.1053 5.26522 9.99994 5 9.99994ZM10.86 8.44994L3.71 1.28994C3.61676 1.1967 3.50607 1.12274 3.38425 1.07228C3.26243 1.02182 3.13186 0.99585 3 0.99585C2.86814 0.99585 2.73757 1.02182 2.61575 1.07228C2.49393 1.12274 2.38324 1.1967 2.29 1.28994C2.1017 1.47824 1.99591 1.73364 1.99591 1.99994C1.99591 2.26624 2.1017 2.52164 2.29 2.70994L3.59 3.99994H3C2.20435 3.99994 1.44129 4.31601 0.87868 4.87862C0.31607 5.44123 0 6.20429 0 6.99994V14.9999C0 15.7956 0.31607 16.5587 0.87868 17.1213C1.44129 17.6839 2.20435 17.9999 3 17.9999H17.59L20.29 20.7099C20.383 20.8037 20.4936 20.8781 20.6154 20.9288C20.7373 20.9796 20.868 21.0057 21 21.0057C21.132 21.0057 21.2627 20.9796 21.3846 20.9288C21.5064 20.8781 21.617 20.8037 21.71 20.7099C21.8037 20.617 21.8781 20.5064 21.9289 20.3845C21.9797 20.2627 22.0058 20.132 22.0058 19.9999C22.0058 19.8679 21.9797 19.7372 21.9289 19.6154C21.8781 19.4935 21.8037 19.3829 21.71 19.2899L10.86 8.44994ZM10.12 10.5399L11.46 11.8799C11.3185 11.9563 11.1608 11.9975 11 11.9999C10.7348 11.9999 10.4804 11.8946 10.2929 11.707C10.1054 11.5195 10 11.2652 10 10.9999C10.0024 10.8392 10.0436 10.6814 10.12 10.5399ZM3 15.9999C2.73478 15.9999 2.48043 15.8946 2.29289 15.707C2.10536 15.5195 2 15.2652 2 14.9999V6.99994C2 6.73472 2.10536 6.48037 2.29289 6.29283C2.48043 6.1053 2.73478 5.99994 3 5.99994H5.59L8.69 9.09994C8.24713 9.63438 8.00328 10.3059 8 10.9999C8 11.7956 8.31607 12.5587 8.87868 13.1213C9.44129 13.6839 10.2044 13.9999 11 13.9999C11.6941 13.9967 12.3656 13.7528 12.9 13.3099L15.59 15.9999H3ZM19 3.99994H11.66C11.3948 3.99994 11.1404 4.1053 10.9529 4.29283C10.7654 4.48037 10.66 4.73472 10.66 4.99994C10.66 5.26516 10.7654 5.51951 10.9529 5.70705C11.1404 5.89458 11.3948 5.99994 11.66 5.99994H19C19.2652 5.99994 19.5196 6.1053 19.7071 6.29283C19.8946 6.48037 20 6.73472 20 6.99994V14.3399C20 14.6052 20.1054 14.8595 20.2929 15.047C20.4804 15.2346 20.7348 15.3399 21 15.3399C21.2652 15.3399 21.5196 15.2346 21.7071 15.047C21.8946 14.8595 22 14.6052 22 14.3399V6.99994C22 6.20429 21.6839 5.44123 21.1213 4.87862C20.5587 4.31601 19.7956 3.99994 19 3.99994ZM18 10.9999C18 10.8022 17.9414 10.6088 17.8315 10.4444C17.7216 10.2799 17.5654 10.1517 17.3827 10.0761C17.2 10.0004 16.9989 9.98057 16.8049 10.0192C16.6109 10.0577 16.4327 10.153 16.2929 10.2928C16.153 10.4327 16.0578 10.6109 16.0192 10.8049C15.9806 10.9988 16.0004 11.1999 16.0761 11.3826C16.1518 11.5654 16.28 11.7215 16.4444 11.8314C16.6089 11.9413 16.8022 11.9999 17 11.9999C17.2652 11.9999 17.5196 11.8946 17.7071 11.707C17.8946 11.5195 18 11.2652 18 10.9999Z" fill="#D92B26"/>
</svg>
